<svg width="128" height="36" viewBox="0 0 128 36" fill="none" xmlns="http://www.w3.org/2000/svg">
<path fill-rule="evenodd" clip-rule="evenodd" d="M18.0916 29.6251C18.4897 29.4184 18.9609 29.7139 18.9609 30.1703V35.1112C18.9609 35.5675 18.4897 35.8631 18.0916 35.6564L14.4372 33.7588L10.783 35.6564C10.385 35.8631 9.91355 35.5675 9.91355 35.1112V30.1703C9.91355 29.7139 10.385 29.4184 10.783 29.6251L14.4372 31.5226L18.0916 29.6251ZM14.4372 0.277344C15.713 0.277344 16.7472 1.31285 16.7472 2.59024C16.7472 3.52359 16.1948 4.32723 15.3997 4.69267V7.9712H20.0396C24.9112 7.9712 28.8745 11.9397 28.8745 16.8175V19.1702C28.8745 24.048 24.9112 28.0163 20.0396 28.0163H8.83501C3.96341 28.0163 0 24.048 0 19.1702V16.8175C0 11.9397 3.96341 7.9712 8.83501 7.9712H13.4748V4.69267C12.6797 4.32723 12.1273 3.52359 12.1273 2.59024C12.1273 1.31285 13.1615 0.277344 14.4372 0.277344V0.277344ZM89.1341 9.79017C90.3011 9.77147 91.4075 9.9724 92.4532 10.3931C93.4987 10.8138 94.3951 11.3911 95.1422 12.1248C95.889 12.8588 96.4747 13.7375 96.8997 14.7612C97.3244 15.7848 97.5276 16.867 97.5089 18.0074C97.5276 19.1481 97.3244 20.23 96.8997 21.2537C96.4747 22.2773 95.889 23.1538 95.1422 23.8829C94.3951 24.6121 93.4987 25.187 92.4532 25.6077C91.4075 26.0284 90.3011 26.2294 89.1341 26.2107C87.9669 26.2294 86.8605 26.0284 85.8149 25.6077C84.7691 25.187 83.8729 24.6121 83.126 23.8829C82.3789 23.1538 81.793 22.2773 81.3684 21.2537C80.9434 20.23 80.7404 19.1481 80.7591 18.0074C80.7404 16.867 80.9434 15.7848 81.3684 14.7612C81.793 13.7375 82.3789 12.8588 83.126 12.1248C83.8729 11.3911 84.7691 10.8138 85.8149 10.3931C86.8605 9.9724 87.9669 9.77147 89.1341 9.79017ZM44.1589 9.79009C45.1204 9.79009 46.0004 9.99122 46.7987 10.3931C47.597 10.7951 48.2575 11.3701 48.7805 12.1179V10.1968H53.5982V25.8181H48.7805V23.883C48.2575 24.6309 47.597 25.2057 46.7987 25.6077C46.0004 26.0096 45.1204 26.2107 44.1589 26.2107C42.721 26.2107 41.4231 25.8508 40.2655 25.131C39.1077 24.4112 38.2068 23.425 37.5625 22.1722C36.9183 20.9196 36.5962 19.5312 36.5962 18.0074C36.5962 16.4837 36.9183 15.0955 37.5625 13.8427C38.2068 12.59 39.1077 11.6014 40.2655 10.8769C41.4231 10.1524 42.721 9.79009 44.1589 9.79009ZM60.3771 10.1968L63.094 19.9285L65.8249 10.365H70.2364L72.9674 19.9285L75.6844 10.1968H80.796L75.5163 25.8181H70.6706L67.9676 17.2221L65.2787 25.8181H60.4331L55.1533 10.1968H60.3771ZM108.231 9.90231C108.959 9.90231 109.58 10.0004 110.093 10.1968V14.6139C109.514 14.4365 108.861 14.3475 108.133 14.3475C106.956 14.3475 106.008 14.6863 105.29 15.3641C104.571 16.042 104.211 16.9511 104.211 18.0915V25.818H99.3935V10.1968H104.211V12.4824C104.566 11.688 105.105 11.0591 105.829 10.5964C106.552 10.1336 107.353 9.90231 108.231 9.90231ZM116.964 4.12493V16.7314L122.188 10.1968H127.692L121.376 17.9794L128 25.8181H122.44L116.964 19.2134V25.8181H112.146V4.12493H116.964ZM20.0396 12.7897H8.83501C6.61341 12.7897 4.81241 14.593 4.81241 16.8175V19.1702C4.81241 21.3946 6.61341 23.1978 8.83501 23.1978H20.0396C22.2612 23.1978 24.0621 21.3946 24.0621 19.1702V16.8175C24.0621 14.593 22.2612 12.7897 20.0396 12.7897ZM44.9711 13.9548C43.8507 13.9548 42.9404 14.3358 42.2402 15.0977C41.54 15.8597 41.1898 16.8295 41.1898 18.0074C41.1898 19.1854 41.54 20.1529 42.2402 20.9101C42.9404 21.6673 43.8507 22.0459 44.9711 22.0459C46.0916 22.0459 47.0019 21.6673 47.7021 20.9101C48.4023 20.1529 48.7524 19.1854 48.7524 18.0074C48.7524 16.8295 48.4023 15.8597 47.7021 15.0977C47.0019 14.3358 46.0916 13.9548 44.9711 13.9548ZM89.1341 14.0109C88.0042 14.0109 87.0915 14.3849 86.396 15.1328C85.7004 15.8808 85.3528 16.8389 85.3528 18.0074C85.3528 19.1761 85.7004 20.1318 86.396 20.875C87.0915 21.6182 88.0042 21.9898 89.1341 21.9898C90.2636 21.9898 91.1763 21.6182 91.8721 20.875C92.5675 20.1318 92.9154 19.1761 92.9154 18.0074C92.9154 16.8389 92.5675 15.8808 91.8721 15.1328C91.1763 14.3849 90.2636 14.0109 89.1341 14.0109ZM10.0098 15.6762C11.2856 15.6762 12.3198 16.7117 12.3198 17.9891C12.3198 19.2665 11.2856 20.302 10.0098 20.302C8.73405 20.302 7.69986 19.2665 7.69986 17.9891C7.69986 16.7117 8.73405 15.6762 10.0098 15.6762ZM18.8647 15.6762C20.1404 15.6762 21.1746 16.7117 21.1746 17.9891C21.1746 19.2665 20.1404 20.302 18.8647 20.302C17.5889 20.302 16.5547 19.2665 16.5547 17.9891C16.5547 16.7117 17.5889 15.6762 18.8647 15.6762Z" fill="#091A34"/>
</svg>
