<?xml version="1.0" encoding="UTF-8"?>
<svg width="260px" height="72px" viewBox="0 0 260 72" version="1.1" xmlns="http://www.w3.org/2000/svg" xmlns:xlink="http://www.w3.org/1999/xlink">
    <title>Logo / Dark</title>
    <g id="Basics" stroke="none" stroke-width="1" fill="none" fill-rule="evenodd">
        <g id="Logo" transform="translate(-168.000000, -203.000000)" fill="#091A34">
            <g id="Combined-Shape" transform="translate(168.000000, 203.000000)">
                <path d="M36.7485027,59.6126005 C37.5571083,59.1927102 38.5142971,59.7930848 38.5142971,60.7199756 L38.5142971,60.7199756 L38.5142971,70.7562349 C38.5142971,71.6831256 37.5571083,72.2835002 36.7485027,71.8636099 L36.7485027,71.8636099 L29.3255976,68.0092322 L21.9028879,71.8636099 C21.0944779,72.2835002 20.1368981,71.6831256 20.1368981,70.7562349 L20.1368981,70.7562349 L20.1368981,60.7199756 C20.1368981,59.7930848 21.0944779,59.1927102 21.9028879,59.6126005 L21.9028879,59.6126005 L29.3255976,63.4669782 Z M29.3256367,-2.13162821e-14 C31.9170454,-2.13162821e-14 34.0177386,2.10336661 34.0177386,4.6980734 C34.0177386,6.59394177 32.8957397,8.22632652 31.2806791,8.96862211 L31.2806791,8.96862211 L31.2806791,15.6281412 L40.7053522,15.6281412 C50.6007996,15.6281412 58.6512734,23.6890563 58.6512734,33.5970974 L58.6512734,33.5970974 L58.6512734,38.3760168 C58.6512734,48.2840578 50.6007996,56.3447773 40.7053522,56.3447773 L40.7053522,56.3447773 L17.9461166,56.3447773 C8.05066929,56.3447773 0,48.2840578 0,38.3760168 L0,38.3760168 L0,33.5970974 C0,23.6890563 8.05066929,15.6281412 17.9461166,15.6281412 L17.9461166,15.6281412 L27.3705942,15.6281412 L27.3705942,8.96862211 C25.7557292,8.22632652 24.6335348,6.59394177 24.6335348,4.6980734 C24.6335348,2.10336661 26.7342279,-2.13162821e-14 29.3256367,-2.13162821e-14 Z M181.053607,19.3229214 C183.424096,19.2849453 185.671417,19.6930904 187.795571,20.5475525 C189.919333,21.4022104 191.740064,22.5747712 193.257568,24.065235 C194.774486,25.5560903 195.964325,27.3409667 196.827476,29.4202557 C197.690236,31.4995446 198.102946,33.6976557 198.065018,36.0141974 C198.102946,38.3311306 197.690236,40.5288502 196.827476,42.6081392 C195.964325,44.6874282 194.774486,46.4678022 193.257568,47.9488699 C191.740064,49.4299375 189.919333,50.5978003 187.795571,51.4522624 C185.671417,52.3069202 183.424096,52.7150653 181.053607,52.6770892 C178.682727,52.7150653 176.435406,52.3069202 174.311448,51.4522624 C172.187294,50.5978003 170.366758,49.4299375 168.849646,47.9488699 C167.332142,46.4678022 166.142107,44.6874282 165.279542,42.6081392 C164.416196,40.5288502 164.003877,38.3311306 164.042001,36.0141974 C164.003877,33.6976557 164.416196,31.4995446 165.279542,29.4202557 C166.142107,27.3409667 167.332142,25.5560903 168.849646,24.065235 C170.366758,22.5747712 172.187294,21.4022104 174.311448,20.5475525 C176.435406,19.6930904 178.682727,19.2849453 181.053607,19.3229214 Z M89.6977775,19.3227648 C91.6508649,19.3227648 93.4383602,19.7313014 95.0598724,20.5475917 C96.6813846,21.3642734 98.0231303,22.5321362 99.0853048,24.0511799 L99.0853048,24.0511799 L99.0853048,20.1488427 L108.87127,20.1488427 L108.87127,51.8796304 L99.0853048,51.8796304 L99.0853048,47.948909 C98.0231303,49.4681485 96.6813846,50.6356197 95.0598724,51.4523015 C93.4383602,52.2685918 91.6508649,52.6771284 89.6977775,52.6771284 C86.7769441,52.6771284 84.1407649,51.9459907 81.7892398,50.4839111 C79.4375192,49.0218315 77.6075995,47.0186905 76.2988941,44.4739007 C74.9903842,41.9295025 74.3360315,39.1094839 74.3360315,36.0142366 C74.3360315,32.919185 74.9903842,30.0993622 76.2988941,27.5545724 C77.6075995,25.0101742 79.4375192,23.0019435 81.7892398,21.530272 C84.1407649,20.0587963 86.7769441,19.3227648 89.6977775,19.3227648 Z M122.640927,20.1488623 L128.159621,39.9163976 L133.706858,20.4906471 L142.6676,20.4906471 L148.215033,39.9163976 L153.733922,20.1488623 L164.116957,20.1488623 L153.392572,51.87965 L143.549715,51.87965 L138.059174,34.4190645 L132.597372,51.87965 L122.75471,51.87965 L112.03013,20.1488623 L122.640927,20.1488623 Z M219.84337,19.5507192 C221.322555,19.5507192 222.583753,19.7499958 223.626963,20.1489406 L223.626963,20.1489406 L223.626963,29.1210863 C222.45081,28.7607049 221.123531,28.5800248 219.644346,28.5800248 C217.254698,28.5800248 215.329568,29.2682926 213.869346,30.6450238 C212.40893,32.0219508 211.678917,33.8684894 211.678917,36.1850311 L211.678917,36.1850311 L211.678917,51.8795326 L201.893147,51.8795326 L201.893147,20.1489406 L211.678917,20.1489406 L211.678917,24.7916159 C212.399545,23.1778277 213.494565,21.9005389 214.964561,20.9605328 C216.434167,20.0205266 218.060566,19.5507192 219.84337,19.5507192 Z M237.583483,7.8154017 L237.583483,33.4222507 L248.194281,20.1488231 L259.374191,20.1488231 L246.54442,35.9572529 L260,51.8796109 L248.706502,51.8796109 L237.583483,38.4638708 L237.583483,51.8796109 L227.797518,51.8796109 L227.797518,7.8154017 L237.583483,7.8154017 Z M40.7053522,25.4157941 L17.9461166,25.4157941 C13.4334877,25.4157941 9.77521223,29.0787253 9.77521223,33.5970974 L9.77521223,33.5970974 L9.77521223,38.3760168 C9.77521223,42.8943889 13.4334877,46.5571244 17.9461166,46.5571244 L17.9461166,46.5571244 L40.7053522,46.5571244 C45.2179812,46.5571244 48.8760611,42.8943889 48.8760611,38.3760168 L48.8760611,38.3760168 L48.8760611,33.5970974 C48.8760611,29.0787253 45.2179812,25.4157941 40.7053522,25.4157941 L40.7053522,25.4157941 Z M91.3476378,27.782429 C89.0717729,27.782429 87.2226938,28.5562408 85.8004004,30.1038645 C84.378107,31.6516839 83.6668626,33.6215469 83.6668626,36.0142366 C83.6668626,38.4069262 84.378107,40.3722869 85.8004004,41.9103187 C87.2226938,43.4483505 89.0717729,44.2174642 91.3476378,44.2174642 C93.6235027,44.2174642 95.4725819,43.4483505 96.8948753,41.9103187 C98.3171686,40.3722869 99.0284131,38.4069262 99.0284131,36.0142366 C99.0284131,33.6215469 98.3171686,31.6516839 96.8948753,30.1038645 C95.4725819,28.5562408 93.6235027,27.782429 91.3476378,27.782429 Z M181.053607,27.8963181 C178.758583,27.8963181 176.904616,28.6560357 175.491902,30.1750794 C174.078993,31.6945147 173.372832,33.6406916 173.372832,36.0141974 C173.372832,38.3880948 174.078993,40.3293778 175.491902,41.8390254 C176.904616,43.348673 178.758583,44.1034968 181.053607,44.1034968 C183.348045,44.1034968 185.201816,43.348673 186.615116,41.8390254 C188.027634,40.3293778 188.734382,38.3880948 188.734382,36.0141974 C188.734382,33.6406916 188.027634,31.6945147 186.615116,30.1750794 C185.201816,28.6560357 183.348045,27.8963181 181.053607,27.8963181 Z M20.3324414,31.2789701 C22.9238502,31.2789701 25.0245433,33.3823367 25.0245433,35.9770435 C25.0245433,38.5717503 22.9238502,40.6751169 20.3324414,40.6751169 C17.7410327,40.6751169 15.6403396,38.5717503 15.6403396,35.9770435 C15.6403396,33.3823367 17.7410327,31.2789701 20.3324414,31.2789701 Z M38.3188319,31.2789701 C40.9102407,31.2789701 43.0109338,33.3823367 43.0109338,35.9770435 C43.0109338,38.5717503 40.9102407,40.6751169 38.3188319,40.6751169 C35.7274232,40.6751169 33.6267301,38.5717503 33.6267301,35.9770435 C33.6267301,33.3823367 35.7274232,31.2789701 38.3188319,31.2789701 Z"></path>
            </g>
        </g>
    </g>
</svg>